<?xml version="1.0" encoding="UTF-8"?><svg id="Layer_1" xmlns="http://www.w3.org/2000/svg" xmlns:xlink="http://www.w3.org/1999/xlink" viewBox="0 0 58 51"><defs><style>.cls-1{fill:none;}.cls-2{fill:#d31242;}.cls-3{clip-path:url(#clippath);}</style><clipPath id="clippath"><rect class="cls-1" width="58" height="51"/></clipPath></defs><g class="cls-3"><path class="cls-2" d="M10.45,37.52h-2.69v-7.69h2.59c2.64,0,3.23,2.13,3.23,3.87,0,2.13-.95,3.82-3.13,3.82ZM7.76,16.69h2.69c2.04,0,2.98,1.49,2.98,3.27s-.8,3.28-2.88,3.28h-2.79v-6.55h0ZM16.66,26.01c3.33-1.24,4.73-4.51,4.73-7.64,0-6.35-4.18-8.48-9-8.48H0v34.57h11.99c6.92,0,10.45-4.37,10.45-10.66,0-4.17-2.83-6.89-5.77-7.79Z"/><path class="cls-2" d="M26.19,35.34c0,4.17-1.52,7.49-4.5,9.29l4.84,6.36,1.94-1.63c2.96-2.67,5.35-7.39,5.35-12.34V9.9h-7.72l.08,25.44Z"/><path class="cls-2" d="M39.11,21.4s3.52-5.45,8.84-11.32c1.39-1.54,2.83-3.03,4.17-4.38C55.35,2.42,58,0,58,0c0,0-4.57,2.56-8.82,5.69-.17.12-.33.24-.49.36-4.89,3.67-8.16,6.9-8.16,6.9l-3.72-3.8,2.3,12.1v.14s0,0,0,0Z"/><path class="cls-2" d="M45.7,28.82c0-1.03,1.12-1.45,2.36-1.39,1.66.08,3.03.99,4.69,1.84l2.25-5.33c-2.32-1.23-4.41-2.21-7.96-2.21-5.12,0-8.39,3.27-8.39,7.78,0,7.4,9.93,4.73,9.93,8.47,0,.81-.86,1.43-2.09,1.43-2.04,0-4.8-1.52-6.46-2.61l-2.47,5.63c2.94,1.75,5.93,2.64,8.82,2.64,5.64,0,9.48-3.06,9.48-7.82,0-7.78-10.13-4.97-10.15-8.43"/><path class="cls-2" d="M54.01,18.21c0,.85-.64,1.53-1.45,1.52-.8,0-1.46-.67-1.46-1.53s.65-1.52,1.45-1.52h0c.8,0,1.45.68,1.45,1.53M52.56,16.4c-.99,0-1.79.8-1.79,1.81s.8,1.81,1.79,1.81,1.79-.8,1.79-1.81-.79-1.81-1.78-1.81h0Z"/><path class="cls-2" d="M52.94,17.79c0,.25-.22.34-.49.34h-.23v-.68c.05,0,.13-.02.23-.02.36,0,.49.18.49.35ZM51.9,17.23v2.01h.32v-.87h.22c.26,0,.39.1.43.35.04.27.09.45.14.51h.34c-.03-.06-.08-.18-.13-.5-.04-.3-.16-.46-.34-.49v-.02c.22-.06.39-.22.39-.49,0-.19-.06-.33-.19-.42-.12-.09-.32-.15-.62-.15-.24,0-.4.02-.57.05Z"/></g></svg>